<svg width="866" height="866" xmlns="http://www.w3.org/2000/svg" xmlns:xlink="http://www.w3.org/1999/xlink" xml:space="preserve" overflow="hidden"><defs><filter id="fx0" x="-10%" y="-10%" width="120%" height="120%" filterUnits="userSpaceOnUse" primitiveUnits="userSpaceOnUse"><feComponentTransfer color-interpolation-filters="sRGB"><feFuncR type="discrete" tableValues="0.431373 0.431373"/><feFuncG type="discrete" tableValues="0.454902 0.454902"/><feFuncB type="discrete" tableValues="0.478431 0.478431"/><feFuncA type="linear" slope="0.431373" intercept="0"/></feComponentTransfer><feGaussianBlur stdDeviation="2.7197 2.7197"/></filter><clipPath id="clip1"><path d="M800.535 842.079 1340.78 517.448 1665.41 1057.69 1125.17 1382.32Z" fill-rule="evenodd" clip-rule="evenodd"/></clipPath><clipPath id="clip2"><path d="M800.535 842.079 1340.78 517.448 1665.41 1057.69 1125.17 1382.32Z" fill-rule="evenodd" clip-rule="evenodd"/></clipPath><clipPath id="clip3"><path d="M800.535 842.079 1340.78 517.448 1665.41 1057.69 1125.17 1382.32Z" fill-rule="evenodd" clip-rule="evenodd"/></clipPath><clipPath id="clip4"><rect x="135" y="133" width="234" height="210"/></clipPath></defs><g transform="translate(-800 -517)"><g clip-path="url(#clip1)"><g clip-path="url(#clip2)"><g clip-path="url(#clip3)"><path d="M1079.8 1051.89 1119.36 1117.73C1137.96 1148.68 1226.9 1137.36 1314.13 1084.95 1401.36 1032.53 1453.1 959.312 1434.51 928.361L1394.94 862.518 1270.85 1012.91 1079.8 1051.89Z" fill="#7F7F7F"/><path d="M1256.31 988.716 1449.93 755.178 1151.82 814.825 959.207 1050.05 997.484 1042.37 1059.71 1145.92C1063.42 1152.11 1071.53 1154.13 1077.72 1150.41 1083.91 1146.69 1085.94 1138.58 1082.22 1132.39L1024.73 1036.72 1256.31 988.716Z" fill="#7F7F7F"/></g></g></g><g clip-path="url(#clip4)" filter="url(#fx0)" transform="translate(956 673)"><g><path d="M47.4536 1.4502C39.7192 1.4502 32.7368 0.268555 26.5063-2.09473 20.2759-4.45801 15.321-8.16406 11.6418-13.2129 7.96265-18.2617 6.12305-24.8144 6.12305-32.8711L20.7056-32.8711C20.7056-27.124 21.9543-22.6123 24.4519-19.3359 26.9495-16.0596 30.2661-13.75 34.4019-12.4072 38.5376-11.0645 43.0762-10.3931 48.0176-10.3931 52.583-10.3931 56.759-11.0779 60.5457-12.4475 64.3323-13.8171 67.3535-15.885 69.6094-18.6511 71.8652-21.4172 72.9932-24.9756 72.9932-29.3262 72.9932-33.0859 72.1069-36.1743 70.3345-38.5913 68.562-41.0083 65.6213-43.1165 61.5124-44.9158 57.4036-46.7151 51.8848-48.501 44.9561-50.2734 36.792-52.4219 30.0781-54.7717 24.8145-57.323 19.5508-59.8743 15.6433-63.0566 13.092-66.8701 10.5408-70.6836 9.26514-75.5176 9.26514-81.3721 9.26514-87.5488 10.7153-92.7454 13.6157-96.9617 16.5161-101.178 20.6787-104.387 26.1035-106.589 31.5283-108.791 37.9736-109.893 45.4394-109.893 52.4219-109.893 58.8135-108.765 64.6143-106.509 70.415-104.253 75.0476-100.869 78.512-96.3574 81.9763-91.8457 83.7085-86.2329 83.7085-79.519L69.2065-79.519C69.2602-85.6421 67.0044-90.2747 62.439-93.4167 57.8735-96.5588 52.2339-98.1299 45.52-98.1299 38.5913-98.1299 33.2068-96.7468 29.3665-93.9807 25.5261-91.2146 23.606-87.1728 23.606-81.8555 23.606-78.6865 24.4385-76.0413 26.1035-73.9197 27.7686-71.7981 30.6287-69.8779 34.6838-68.1592 38.739-66.4404 44.3921-64.6411 51.6431-62.7612 60.022-60.5054 66.8298-58.0884 72.0666-55.5103 77.3035-52.9321 81.1572-49.6289 83.6279-45.6006 86.0986-41.5723 87.334-36.2817 87.334-29.729 87.334-22.7466 85.5884-16.9592 82.0972-12.3669 78.6059-7.77466 73.8525-4.32373 67.8369-2.01416 61.8213 0.29541 55.0269 1.4502 47.4536 1.4502ZM107.565 0 107.565-108.442 142.37-108.442C153.273-108.442 161.988-106.24 168.514-101.836 175.039-97.4316 178.302-90.7178 178.302-81.6943 178.302-76.001 176.704-70.9253 173.509-66.4673 170.313-62.0093 166.083-59.1089 160.819-57.7661 168.339-56.5308 174.328-53.5364 178.786-48.783 183.244-44.0295 185.473-38.1616 185.473-31.1792 185.473-24.6265 184.023-19.0271 181.122-14.3811 178.222-9.73511 173.844-6.17676 167.99-3.70605 162.135-1.23535 154.75 0 145.834 0ZM122.067-12.085 145.592-12.085C150.158-12.085 154.374-12.6624 158.241-13.8171 162.109-14.9719 165.197-17.0129 167.507-19.9402 169.816-22.8674 170.971-26.9092 170.971-32.0654 170.971-38.2959 168.715-42.9419 164.203-46.0034 159.692-49.0649 153.488-50.5957 145.592-50.5957L122.067-50.5957ZM122.067-62.3584 142.289-62.3584C149.272-62.3584 154.602-63.9563 158.282-67.1521 161.961-70.3479 163.8-74.6582 163.8-80.083 163.8-83.7353 162.968-86.7834 161.303-89.2273 159.638-91.6711 157.207-93.4973 154.012-94.7058 150.816-95.9143 146.908-96.5185 142.289-96.5185L122.067-96.5185Z" fill="#D1D1D1" transform="matrix(0.857154 -0.515059 0.515059 0.857154 198.449 334)"/></g></g><text fill="#D1D1D1" font-family="Aptos,Aptos_MSFontService,sans-serif" font-weight="400" font-size="165" transform="matrix(0.857154 -0.515059 0.515059 0.857154 1151.62 1002)">SB</text></g></svg>