<svg width="2062" height="2030" xmlns="http://www.w3.org/2000/svg" xmlns:xlink="http://www.w3.org/1999/xlink" xml:space="preserve" overflow="hidden"><defs><filter id="fx0" x="-10%" y="-10%" width="120%" height="120%" filterUnits="userSpaceOnUse" primitiveUnits="userSpaceOnUse"><feComponentTransfer color-interpolation-filters="sRGB"><feFuncR type="discrete" tableValues="0.431373 0.431373"/><feFuncG type="discrete" tableValues="0.454902 0.454902"/><feFuncB type="discrete" tableValues="0.478431 0.478431"/><feFuncA type="linear" slope="0.431373" intercept="0"/></feComponentTransfer><feGaussianBlur stdDeviation="4.65858 4.65858"/></filter><clipPath id="clip1"><path d="M276.202 594.578 1593.43-196.937 2337.5 1041.33 1020.27 1832.85Z" fill-rule="evenodd" clip-rule="evenodd"/></clipPath><clipPath id="clip2"><path d="M276.202 594.578 1593.43-196.937 2337.5 1041.33 1020.27 1832.85Z" fill-rule="evenodd" clip-rule="evenodd"/></clipPath><clipPath id="clip3"><path d="M276.202 594.578 1593.43-196.937 2337.5 1041.33 1020.27 1832.85Z" fill-rule="evenodd" clip-rule="evenodd"/></clipPath><clipPath id="clip4"><rect x="302" y="296" width="503" height="450"/></clipPath></defs><g transform="translate(-276 197)"><g clip-path="url(#clip1)"><g clip-path="url(#clip2)"><g clip-path="url(#clip3)"><path d="M300.964 741.877 300.964 917.941C300.964 1000.71 489.067 1083.47 722.314 1083.47 955.562 1083.47 1143.66 1000.71 1143.66 917.941L1143.66 741.877 722.314 890.854 300.964 741.877Z" fill="#7F7F7F" transform="matrix(0.911811 -0.547902 0.515059 0.857155 276.202 594.578)"/><path d="M722.314 826.147 1378.42 595.909 722.314 361.157 66.2122 595.909 150.482 626.006 150.482 902.893C150.482 919.446 164.026 932.989 180.579 932.989 197.132 932.989 210.675 919.446 210.675 902.893L210.675 647.073 722.314 826.147Z" fill="#7F7F7F" transform="matrix(0.911811 -0.547902 0.515059 0.857155 276.202 594.578)"/></g></g></g><g clip-path="url(#clip4)" filter="url(#fx0)" transform="translate(682 178)"><g><path d="M105.548 3.22559C88.3452 3.22559 72.8146 0.597331 58.9565-4.65918 45.0985-9.91569 34.0777-18.1589 25.8943-29.3887 17.7109-40.6185 13.6191-55.1934 13.6191-73.1133L46.0542-73.1133C46.0542-60.3304 48.8318-50.2952 54.387-43.0078 59.9421-35.7204 67.3192-30.5833 76.5181-27.5967 85.7169-24.61 95.8118-23.1167 106.803-23.1167 116.957-23.1167 126.246-24.6399 134.668-27.6863 143.091-30.7327 149.811-35.3321 154.828-41.4846 159.846-47.6371 162.354-55.5518 162.354-65.2285 162.354-73.5911 160.383-80.4604 156.441-85.8364 152.499-91.2124 145.958-95.9014 136.819-99.9036 127.679-103.906 115.404-107.878 99.9932-111.82 81.8343-116.599 66.901-121.826 55.1934-127.5 43.4857-133.175 34.7945-140.253 29.1199-148.735 23.4452-157.217 20.6079-167.969 20.6079-180.991 20.6079-194.73 23.8335-206.288 30.2847-215.666 36.7358-225.044 45.9945-232.182 58.0605-237.081 70.1266-241.979 84.4626-244.428 101.068-244.428 116.599-244.428 130.815-241.919 143.718-236.901 156.62-231.884 166.924-224.357 174.63-214.322 182.335-204.287 186.188-191.803 186.188-176.87L153.932-176.87C154.052-190.489 149.034-200.793 138.879-207.781 128.725-214.77 116.181-218.265 101.248-218.265 85.8364-218.265 73.8599-215.188 65.3181-209.036 56.7763-202.883 52.5054-193.894 52.5054-182.066 52.5054-175.018 54.3571-169.134 58.0605-164.415 61.764-159.696 68.1256-155.425 77.1453-151.603 86.1649-147.78 98.7388-143.777 114.867-139.596 133.503-134.579 148.646-129.203 160.294-123.468 171.942-117.734 180.513-110.387 186.009-101.427 191.504-92.4668 194.252-80.6994 194.252-66.1245 194.252-50.5939 190.369-37.7214 182.604-27.5071 174.839-17.2927 164.266-9.61702 150.886-4.47998 137.506 0.657064 122.393 3.22559 105.548 3.22559ZM238.935 0 238.935-241.202 316.349-241.202C340.601-241.202 359.984-236.304 374.499-226.508 389.014-216.712 396.272-201.778 396.272-181.708 396.272-169.045 392.718-157.755 385.609-147.839 378.501-137.924 369.093-131.472 357.386-128.486 374.111-125.738 387.431-119.078 397.347-108.505 407.263-97.9324 412.221-84.8807 412.221-69.3501 412.221-54.7752 408.995-42.3209 402.544-31.9871 396.093-21.6532 386.356-13.7386 373.334-8.24316 360.312-2.74772 343.886 0 324.055 0ZM271.191-26.8799 323.517-26.8799C333.672-26.8799 343.05-28.1641 351.651-30.7327 360.253-33.3012 367.122-37.8409 372.259-44.3518 377.396-50.8627 379.965-59.8525 379.965-71.3213 379.965-85.1794 374.947-95.5132 364.912-102.323 354.877-109.132 341.078-112.537 323.517-112.537L271.191-112.537ZM271.191-138.7 316.17-138.7C331.7-138.7 343.557-142.254 351.741-149.363 359.924-156.471 364.016-166.058 364.016-178.124 364.016-186.248 362.164-193.027 358.461-198.463 354.757-203.899 349.351-207.961 342.243-210.649 335.135-213.337 326.444-214.681 316.17-214.681L271.191-214.681Z" fill="#D1D1D1" transform="matrix(0.857154 -0.515059 0.515059 0.857154 434.729 734)"/></g></g><text fill="#D1D1D1" font-family="Aptos,Aptos_MSFontService,sans-serif" font-weight="400" font-size="367" transform="matrix(0.857154 -0.515059 0.515059 0.857154 1111.93 904)">SB</text></g></svg>